<svg width="30" height="52" viewBox="0 0 30 52" fill="none" xmlns="http://www.w3.org/2000/svg">
<g filter="url(#filter0_d_24_464)">
<g clip-path="url(#clip0_24_464)">
<path d="M21.0731 17.5214C20.9801 17.5937 19.3483 18.5129 19.3483 20.5578C19.3483 22.9229 21.4242 23.7595 21.4862 23.7801C21.4759 23.8317 21.1557 24.9265 20.3914 26.0419C19.7098 27.0231 18.9971 28.0042 17.9127 28.0042C16.8283 28.0042 16.5494 27.3742 15.2997 27.3742C14.081 27.3742 13.6472 28.0249 12.6557 28.0249C11.6642 28.0249 10.9722 27.116 10.177 26.0006C9.25776 24.6889 8.51416 22.6543 8.51416 20.723C8.51416 17.6246 10.5282 15.9824 12.5111 15.9824C13.5646 15.9824 14.4424 16.6744 15.1034 16.6744C15.7334 16.6744 16.7146 15.9411 17.9126 15.9411C18.3671 15.9412 19.999 15.9826 21.0731 17.5214ZM17.3447 14.6296C17.8404 14.0409 18.1916 13.225 18.1916 12.4091C18.1916 12.2955 18.1813 12.1819 18.1606 12.0889C17.355 12.1199 16.3945 12.626 15.8161 13.2973C15.3617 13.8137 14.9382 14.6296 14.9382 15.4559C14.9382 15.5798 14.9589 15.7038 14.9692 15.7451C15.0208 15.7554 15.1035 15.7658 15.1861 15.7658C15.9091 15.7657 16.8179 15.2803 17.3447 14.6296Z" fill="white"/>
</g>
</g>
<defs>
<filter id="filter0_d_24_464" x="-4" y="0" width="38" height="52" filterUnits="userSpaceOnUse" color-interpolation-filters="sRGB">
<feFlood flood-opacity="0" result="BackgroundImageFix"/>
<feColorMatrix in="SourceAlpha" type="matrix" values="0 0 0 0 0 0 0 0 0 0 0 0 0 0 0 0 0 0 127 0" result="hardAlpha"/>
<feOffset dy="4"/>
<feGaussianBlur stdDeviation="2"/>
<feComposite in2="hardAlpha" operator="out"/>
<feColorMatrix type="matrix" values="0 0 0 0 0 0 0 0 0 0 0 0 0 0 0 0 0 0 0.25 0"/>
<feBlend mode="normal" in2="BackgroundImageFix" result="effect1_dropShadow_24_464"/>
<feBlend mode="normal" in="SourceGraphic" in2="effect1_dropShadow_24_464" result="shape"/>
</filter>
<clipPath id="clip0_24_464">
<rect width="14" height="44" fill="white" transform="translate(8)"/>
</clipPath>
</defs>
</svg>
