<svg width="32" height="88" viewBox="0 0 32 88" fill="none" xmlns="http://www.w3.org/2000/svg">
<g clip-path="url(#clip0_24_503)">
<path d="M22.1989 27.343L18.6989 23.843C19.5806 22.7632 20.0138 21.3859 19.9088 19.9958C19.8039 18.6057 19.1689 17.309 18.1351 16.3738C17.1013 15.4385 15.7477 14.9362 14.3541 14.9706C12.9604 15.005 11.6333 15.5735 10.6469 16.5586C9.6605 17.5438 9.09028 18.8702 9.05408 20.2638C9.01788 21.6574 9.51847 23.0116 10.4524 24.0466C11.3863 25.0816 12.6821 25.7183 14.0721 25.825C15.4621 25.9317 16.8399 25.5003 17.9209 24.62L21.4209 28.12C21.472 28.1711 21.5326 28.2116 21.5994 28.2393C21.6661 28.2669 21.7377 28.2811 21.8099 28.2811C21.8822 28.2811 21.9537 28.2669 22.0204 28.2393C22.0872 28.2116 22.1478 28.1711 22.1989 28.12C22.25 28.0689 22.2905 28.0083 22.3182 27.9415C22.3458 27.8748 22.36 27.8033 22.36 27.731C22.36 27.6588 22.3458 27.5872 22.3182 27.5205C22.2905 27.4537 22.25 27.3931 22.1989 27.342V27.343ZM10.1779 20.418C10.1781 19.5638 10.4316 18.7289 10.9063 18.0188C11.381 17.3087 12.0556 16.7552 12.8448 16.4285C13.634 16.1018 14.5024 16.0164 15.3401 16.1831C16.1779 16.3499 16.9473 16.7613 17.5513 17.3654C18.1552 17.9694 18.5664 18.739 18.733 19.5768C18.8996 20.4146 18.814 21.2829 18.4871 22.0721C18.1601 22.8612 17.6065 23.5357 16.8963 24.0102C16.1861 24.4847 15.3511 24.738 14.4969 24.738C13.3516 24.737 12.2535 24.2814 11.4437 23.4715C10.634 22.6615 10.1787 21.5633 10.1779 20.418Z" fill="white"/>
</g>
<defs>
<clipPath id="clip0_24_503">
<rect width="15" height="88" fill="white" transform="translate(8.21875)"/>
</clipPath>
</defs>
</svg>
